<svg aria-hidden="true" focusable="false" class="super-restaurant" width="18" height="18" viewBox="0 0 16 16" xmlns="http://www.w3.org/2000/svg" data-testid="super-restaurant-badge"><path fill-rule="evenodd" clip-rule="evenodd" d="M8.58324 1.22858C8.44085 1.05244 8.22648 0.950073 7.99998 0.950073C7.77348 0.950073 7.5591 1.05244 7.41671 1.22858L6.44878 2.42599L4.9619 2.0262C4.74316 1.96739 4.50957 2.01058 4.32632 2.14372C4.14308 2.27685 4.02981 2.48567 4.01815 2.71187L3.9389 4.24952L2.501 4.80006C2.28947 4.88105 2.12587 5.0533 2.05588 5.26872C1.98588 5.48413 2.01699 5.71965 2.14052 5.9095L2.98021 7.20007L2.14052 8.49065C2.01699 8.6805 1.98588 8.91601 2.05588 9.13143C2.12587 9.34685 2.28947 9.51909 2.501 9.60008L3.9389 10.1506L4.01815 11.6883C4.02981 11.9145 4.14308 12.1233 4.32632 12.2564C4.50957 12.3896 4.74316 12.4328 4.9619 12.3739L6.44878 11.9742L7.41671 13.1716C7.5591 13.3477 7.77348 13.4501 7.99998 13.4501C8.22648 13.4501 8.44085 13.3477 8.58324 13.1716L9.55117 11.9742L11.0381 12.3739C11.2568 12.4328 11.4904 12.3896 11.6736 12.2564C11.8569 12.1233 11.9701 11.9145 11.9818 11.6883L12.0611 10.1506L13.499 9.60008C13.7105 9.51909 13.8741 9.34685 13.9441 9.13143C14.0141 8.91601 13.983 8.6805 13.8594 8.49065L13.0198 7.20007L13.8594 5.9095C13.983 5.71965 14.0141 5.48413 13.9441 5.26872C13.8741 5.0533 13.7105 4.88105 13.499 4.80006L12.0611 4.24952L11.9818 2.71187C11.9701 2.48567 11.8569 2.27685 11.6736 2.14372C11.4904 2.01058 11.2568 1.96739 11.0381 2.0262L9.55117 2.42599L8.58324 1.22858ZM7.93556 9.01695L6.26016 9.86924C6.12491 9.93804 5.95764 9.88773 5.88654 9.75687C5.85822 9.70476 5.84845 9.64507 5.85874 9.58704L6.17871 7.78186C6.18641 7.73844 6.17153 7.69414 6.13893 7.66339L4.7835 6.38495C4.67409 6.28175 4.67185 6.11227 4.7785 6.0064C4.82097 5.96424 4.87661 5.9368 4.93683 5.92834L6.80999 5.66496C6.85504 5.65863 6.89399 5.63125 6.91414 5.59174L7.75185 3.94933C7.81947 3.81675 7.98536 3.76232 8.12237 3.82775C8.17693 3.85381 8.22109 3.89654 8.24802 3.94933L9.08573 5.59174C9.10587 5.63125 9.14482 5.65863 9.18988 5.66496L11.063 5.92834C11.2142 5.9496 11.319 6.08544 11.297 6.23175C11.2883 6.29001 11.2599 6.34385 11.2164 6.38495L9.86094 7.66339C9.82833 7.69414 9.81346 7.73844 9.82115 7.78186L10.1411 9.58704C10.167 9.73276 10.0658 9.87115 9.91522 9.89614C9.85525 9.90609 9.79356 9.89664 9.73971 9.86924L8.0643 9.01695C8.024 8.99645 7.97586 8.99645 7.93556 9.01695Z"/><path d="M1.80326 12.5656L3.02615 10.4474C3.28697 10.5738 3.46092 10.8331 3.47602 11.1261L3.54062 12.3793C3.56684 12.8879 4.05541 13.2429 4.54728 13.1107L5.75908 12.7848C6.0008 12.7199 6.25485 12.7724 6.44895 12.919L5.44057 14.6656C5.29698 14.9142 4.94589 14.9351 4.77387 14.7052L3.8713 13.4987C3.80572 13.4111 3.70708 13.3541 3.59838 13.3412L2.1023 13.1627C1.81715 13.1287 1.65968 12.8142 1.80326 12.5656Z"/><path d="M10.4966 14.6656L9.50825 12.9536C9.70681 12.781 9.98094 12.715 10.2408 12.7848L11.4526 13.1107C11.9445 13.2429 12.4331 12.8879 12.4593 12.3793L12.5239 11.1261C12.538 10.8515 12.6917 10.6065 12.9257 10.4728L14.134 12.5656C14.2775 12.8142 14.1201 13.1287 13.8349 13.1627L12.3388 13.3412C12.2301 13.3541 12.1315 13.4111 12.0659 13.4987L11.1633 14.7052C10.9913 14.9351 10.6402 14.9142 10.4966 14.6656Z"/></svg>